<svg version="1.2" xmlns="http://www.w3.org/2000/svg" viewBox="0 0 1577 1126" width="1577" height="1126">
	<title>Colgate-Palmolive_logo-svg</title>
	<style>
		.s0 { fill: #007ac2 } 
	</style>
	<g id="Layer">
		<g id="Layer">
			<g id="Layer">
				<path id="Layer" fill-rule="evenodd" class="s0" d="m0.3 422c0 0 11.5-415.8 486.5-421.6h356.3l-79.9 352.2-293.9 1.1c-97.9 0.7-116.6 81.2-116.6 81.2 0 0-5.7 84.8 88.1 94.4l282.4 0.1-81.2 358.1-164.8 0.5c-492.2-10-476.9-466-476.9-466zm1576.4 0c0 0-21-415.8-496.1-421.6h-151.3l-79.1 352.2 247.9 1.1c97.9 0.7 116.6 81.2 116.6 81.2 0 0 5.7 84.8-88.1 94.4l-316.8 0.1-137.2 595.7 335.2 0.4 55.6-237.6 26.8 0.1c492.3-10 486.5-466 486.5-466z"/>
			</g>
		</g>
	</g>
</svg>