<?xml version="1.0" encoding="UTF-8"?>
<!-- Generator: Adobe Illustrator 16.0.0, SVG Export Plug-In . SVG Version: 6.00 Build 0)  -->
<!DOCTYPE svg PUBLIC "-//W3C//DTD SVG 1.1//EN" "http://www.w3.org/Graphics/SVG/1.1/DTD/svg11.dtd">
<svg version="1.1" id="Layer_1" xmlns="http://www.w3.org/2000/svg" xmlns:xlink="http://www.w3.org/1999/xlink" x="0px" y="0px" width="128.584px" height="25.451px" viewBox="30.638 18.561 128.584 25.451" enable-background="new 30.638 18.561 128.584 25.451" xml:space="preserve">
<path fill="#3C01A0" d="M30.638,25.352h2.715l0.237-4.073h3.665v4.073h3.903v2.986h-3.903v11.27c0,0.545,0.306,0.679,0.611,0.679  h3.292v3.224h-4.582c-2.036,0-3.224-1.289-3.224-3.936V28.333h-2.715V25.352z M51.746,24.91c5.022,0,8.247,3.801,8.247,8.998v2.172  H46.52c0.305,2.579,2.715,4.378,5.735,4.378c2.272,0,3.902-1.188,5.089-2.409l2.309,2.3c-1.968,2.477-4.75,3.664-7.67,3.664  c-4.75,0-9.298-3.428-9.298-9.434c0-5.396,4.004-9.672,9.062-9.672V24.91z M56.192,33.018c-0.068-2.545-1.629-4.544-4.582-4.544  c-2.544,0-4.785,1.833-5.089,4.544H56.192z M62.708,18.561h3.902V39.6c0,0.476,0.034,0.68,0.611,0.68h2.443v3.223h-3.766  c-2.478,0-3.19-1.594-3.19-3.867V18.561z M79.913,24.906c5.022,0,8.247,3.801,8.247,8.997v2.173H74.687  c0.306,2.578,2.715,4.377,5.735,4.377c2.272,0,3.902-1.188,5.089-2.409l2.309,2.304c-1.968,2.477-4.75,3.664-7.67,3.664  c-4.75,0-9.298-3.428-9.298-9.434C70.852,29.182,74.855,24.906,79.913,24.906z M84.358,33.018c-0.068-2.545-1.629-4.544-4.582-4.544  c-2.544,0-4.785,1.833-5.089,4.544H84.358z M100.104,24.838c4.412,0,6.89,2.646,8.043,5.667l-3.258,1.39  c-1.018-2.307-2.646-3.495-4.816-3.495c-3.055,0-5.192,2.41-5.192,6.041c0,3.597,2.206,6.04,5.192,6.04  c2.205,0,3.835-1.09,5.26-3.09l2.715,1.833c-1.727,2.919-4.004,4.785-8.212,4.785c-5.192,0-8.857-4.039-8.857-9.468  c0-5.464,3.699-9.706,9.128-9.706L100.104,24.838z M110.083,34.133h3.767v0.373c0,3.363,2.783,5.702,5.77,5.702  c2.951,0,5.498-2.272,5.498-5.601v-0.44h3.834c0,0.204,0.033,0.577,0.033,0.849c0,5.293-4.512,8.993-9.502,8.993  c-4.953,0-9.434-3.801-9.434-9.163C110.045,34.607,110.057,34.37,110.083,34.133L110.083,34.133z M119.518,24.835  c4.582,0,8.075,2.952,9.196,7.16h-3.901c-0.85-2.104-2.818-3.427-5.295-3.427s-4.412,1.391-5.293,3.427h-3.869  c0.518-2.04,1.699-3.851,3.356-5.146C115.371,25.553,117.413,24.845,119.518,24.835L119.518,24.835z M131.869,25.344h3.564  l0.033,3.427h0.17c1.086-2.444,2.986-3.937,5.77-3.937c2.748,0,4.648,1.561,5.429,4.412h0.204c1.052-2.817,3.02-4.412,6.041-4.412  c4.141,0,6.143,3.189,6.143,7.262v11.405h-3.904V32.574c0-2.442-0.881-4.309-3.426-4.309c-2.918,0-4.447,2.511-4.447,5.089v10.147  h-3.902V32.574c0-2.884-1.152-4.309-3.393-4.309c-2.987,0-4.379,2.443-4.379,5.089v10.147h-3.902V25.344z"/>
</svg>